<?xml version="1.0" encoding="utf-8"?>
<!-- Generator: Adobe Illustrator 19.1.0, SVG Export Plug-In . SVG Version: 6.00 Build 0)  -->
<svg version="1.1" id="Layer_1" xmlns="http://www.w3.org/2000/svg" xmlns:xlink="http://www.w3.org/1999/xlink" x="0px" y="0px"
	 viewBox="0 0 957.9 339" style="enable-background:new 0 0 957.9 339;" xml:space="preserve">
<style type="text/css">
	.st0{fill:#454545;}
	.st1{fill:#FFFFFF;}
	.st2{fill:#FFC96A;}
</style>
<rect x="797.4" y="175.8" class="st0" width="160.5" height="15.5"/>
<g>
	<path class="st0" d="M747,248.3c3.8-0.1,8.2-3.1,9.6-6.7l3-7.6c1.4-3.6,5.7-6.7,9.6-7l21.7-1.7c3.8-0.3,7-3.7,7-7.5v-27.2
		c0-3.9,0-10.2,0-14v-27.2c0-3.9-3.1-7.1-7-7.3l-21.7-0.8c-3.8-0.1-8.4-3.1-10.1-6.5l-4-8.1c-1.7-3.4-6.3-6.4-10.1-6.6l-78.1-3.5
		c-3.8-0.2-7,2.8-7,6.7v53.3c0,3.8,0,10.1,0,14v53.3c0,3.8,3.1,6.9,7,6.8L747,248.3z"/>
</g>
<circle class="st1" cx="714.1" cy="183.5" r="10.8"/>
<rect x="0" y="175.8" class="st0" width="160.5" height="15.5"/>
<g>
	<path class="st0" d="M210.9,118.7c-3.8,0.1-8.2,3.1-9.6,6.7l-3,7.6c-1.4,3.6-5.7,6.7-9.6,7l-21.7,1.7c-3.8,0.3-7,3.7-7,7.5v27.2
		c0,3.8,0,10.1,0,14v27.2c0,3.8,3.1,7.1,7,7.3l21.7,0.8c3.8,0.1,8.4,3.1,10.1,6.5l4,8.1c1.7,3.4,6.3,6.4,10.1,6.6l78.1,3.5
		c3.8,0.2,7-2.8,7-6.7v-53.3c0-3.9,0-10.2,0-14v-53.3c0-3.9-3.1-6.9-7-6.8L210.9,118.7z"/>
</g>
<circle class="st1" cx="243.8" cy="183.5" r="10.8"/>
<g>
	<path class="st0" d="M348.3,218.5c0,2.2-1.8,4-4,4h-47.7c-2.2,0-4-1.8-4-4v-2.5c0-2.2,1.8-4,4-4h47.7c2.2,0,4,1.8,4,4V218.5z"/>
</g>
<g>
	<path class="st0" d="M348.3,150.9c0,2.2-1.8,4-4,4h-47.7c-2.2,0-4-1.8-4-4v-2.5c0-2.2,1.8-4,4-4h47.7c2.2,0,4,1.8,4,4V150.9z"/>
</g>
<g>
	<g id="Fill_45_">
		<g>
			<polygon class="st2" points="597.2,109.8 519.7,109.8 549.5,20.4 472,20.4 412.4,175.4 495.8,175.4 451.1,324.4 			"/>
		</g>
	</g>
	<g id="White_17_">
		<g>
			<polygon class="st1" points="555.4,109.8 451.1,324.4 597.2,109.8 			"/>
		</g>
	</g>
	<g id="Inner_Lines_27_">
		<g>
			
				<rect x="384" y="214.1" transform="matrix(0.4372 -0.8994 0.8994 0.4372 87.9985 574.8345)" class="st0" width="238.6" height="6"/>
		</g>
	</g>
	<g id="Outline_48_">
		<g>
			<path class="st0" d="M602.1,113.2L602.1,113.2c0.7-1,1-2.1,1-3.4c0-3.3-2.7-6-6-6H528l27.2-81.6l0,0c0.2-0.6,0.3-1.2,0.3-1.9
				c0-3.3-2.7-6-6-6H472c-2.5,0-4.7,1.6-5.6,3.8l0,0l-59.6,155l0,0c-0.3,0.7-0.4,1.4-0.4,2.1c0,3.3,2.7,6,6,6h75.4l-42.4,141.3
				c0,0,0,0,0,0.1l0,0l0,0c-0.2,0.5-0.3,1.1-0.3,1.7c0,3.3,2.7,6,6,6c2,0,3.9-1,4.9-2.6l0,0l0,0c0,0,0,0,0,0L602.1,113.2z
				 M501.5,177.2C501.5,177.2,501.5,177.1,501.5,177.2L501.5,177.2L501.5,177.2c0.2-0.6,0.3-1.2,0.3-1.8c0-3.3-2.7-6-6-6h-74.8
				l55-143.1h65.1L514,107.9l0,0c-0.2,0.6-0.3,1.2-0.3,1.9c0,3.3,2.7,6,6,6h66.2l-118,173.3L501.5,177.2z"/>
		</g>
	</g>
</g>
</svg>
